<svg width="289" height="128" viewBox="0 0 289 128" fill="none" xmlns="http://www.w3.org/2000/svg">
<path d="M109.832 16C109.683 16 109.56 15.952 109.464 15.856C109.379 15.76 109.336 15.648 109.336 15.52V5.328H110.328V15.52C110.328 15.648 110.28 15.76 110.184 15.856C110.088 15.952 109.971 16 109.832 16ZM106.024 5.712C105.896 5.712 105.784 5.66933 105.688 5.584C105.592 5.49867 105.544 5.38667 105.544 5.248C105.544 5.12 105.592 5.01333 105.688 4.928C105.784 4.84267 105.896 4.8 106.024 4.8H113.64C113.768 4.8 113.88 4.84267 113.976 4.928C114.072 5.01333 114.12 5.12533 114.12 5.264C114.12 5.40267 114.072 5.51467 113.976 5.6C113.88 5.67467 113.768 5.712 113.64 5.712H106.024ZM119.728 15.504C119.718 15.6427 119.659 15.76 119.552 15.856C119.456 15.952 119.344 16 119.216 16C119.067 16 118.944 15.952 118.848 15.856C118.763 15.76 118.72 15.6427 118.72 15.504V5.296C118.72 5.15733 118.768 5.04 118.864 4.944C118.96 4.848 119.083 4.8 119.232 4.8C119.36 4.8 119.472 4.848 119.568 4.944C119.675 5.04 119.728 5.15733 119.728 5.296V15.504ZM125.76 4.8C125.835 4.8 125.91 4.816 125.984 4.848C126.07 4.88 126.139 4.93333 126.192 5.008L130.608 11.632L130.176 11.616L134.608 5.008C134.726 4.848 134.87 4.77867 135.04 4.8C135.168 4.8 135.275 4.848 135.36 4.944C135.456 5.02933 135.504 5.14133 135.504 5.28V15.52C135.504 15.648 135.456 15.76 135.36 15.856C135.264 15.952 135.147 16 135.008 16C134.859 16 134.736 15.952 134.64 15.856C134.544 15.76 134.496 15.648 134.496 15.52V6.256L134.784 6.288L130.736 12.416C130.704 12.48 130.656 12.5333 130.592 12.576C130.528 12.608 130.454 12.6187 130.368 12.608C130.294 12.6187 130.219 12.608 130.144 12.576C130.08 12.5333 130.027 12.48 129.984 12.416L125.92 6.224L126.224 6.016V15.52C126.224 15.648 126.176 15.76 126.08 15.856C125.995 15.952 125.883 16 125.744 16C125.606 16 125.494 15.952 125.408 15.856C125.323 15.76 125.28 15.648 125.28 15.52V5.28C125.28 5.152 125.323 5.04 125.408 4.944C125.504 4.848 125.622 4.8 125.76 4.8ZM141.555 4.8H147.427C147.555 4.8 147.667 4.848 147.763 4.944C147.859 5.02933 147.907 5.14133 147.907 5.28C147.907 5.41867 147.859 5.53067 147.763 5.616C147.667 5.70133 147.555 5.744 147.427 5.744H141.923L142.083 5.472V9.968L141.907 9.76H146.707C146.835 9.76 146.947 9.808 147.043 9.904C147.139 10 147.187 10.112 147.187 10.24C147.187 10.3787 147.139 10.4907 147.043 10.576C146.947 10.6613 146.835 10.704 146.707 10.704H141.939L142.083 10.544V15.152L142.003 15.056H147.427C147.555 15.056 147.667 15.104 147.763 15.2C147.859 15.296 147.907 15.408 147.907 15.536C147.907 15.6747 147.859 15.7867 147.763 15.872C147.667 15.9573 147.555 16 147.427 16H141.555C141.427 16 141.315 15.952 141.219 15.856C141.123 15.76 141.075 15.648 141.075 15.52V5.28C141.075 5.152 141.123 5.04 141.219 4.944C141.315 4.848 141.427 4.8 141.555 4.8ZM162.991 16C162.842 16 162.719 15.952 162.623 15.856C162.538 15.76 162.495 15.648 162.495 15.52V5.328H163.487V15.52C163.487 15.648 163.439 15.76 163.343 15.856C163.247 15.952 163.13 16 162.991 16ZM159.183 5.712C159.055 5.712 158.943 5.66933 158.847 5.584C158.751 5.49867 158.703 5.38667 158.703 5.248C158.703 5.12 158.751 5.01333 158.847 4.928C158.943 4.84267 159.055 4.8 159.183 4.8H166.799C166.927 4.8 167.039 4.84267 167.135 4.928C167.231 5.01333 167.279 5.12533 167.279 5.264C167.279 5.40267 167.231 5.51467 167.135 5.6C167.039 5.67467 166.927 5.712 166.799 5.712H159.183ZM181.551 10.4C181.551 11.2427 181.418 12.016 181.151 12.72C180.895 13.4133 180.527 14.0213 180.047 14.544C179.567 15.056 178.996 15.456 178.335 15.744C177.684 16.0213 176.97 16.16 176.191 16.16C175.412 16.16 174.692 16.0213 174.031 15.744C173.38 15.456 172.815 15.056 172.335 14.544C171.855 14.0213 171.482 13.4133 171.215 12.72C170.959 12.016 170.831 11.2427 170.831 10.4C170.831 9.55733 170.959 8.78933 171.215 8.096C171.482 7.392 171.855 6.784 172.335 6.272C172.815 5.74933 173.38 5.34933 174.031 5.072C174.692 4.784 175.412 4.64 176.191 4.64C176.97 4.64 177.684 4.784 178.335 5.072C178.996 5.34933 179.567 5.74933 180.047 6.272C180.527 6.784 180.895 7.392 181.151 8.096C181.418 8.78933 181.551 9.55733 181.551 10.4ZM180.527 10.4C180.527 9.45067 180.34 8.61867 179.967 7.904C179.604 7.17867 179.098 6.61333 178.447 6.208C177.796 5.80267 177.044 5.6 176.191 5.6C175.348 5.6 174.596 5.80267 173.935 6.208C173.284 6.61333 172.772 7.17867 172.399 7.904C172.036 8.61867 171.855 9.45067 171.855 10.4C171.855 11.3493 172.036 12.1867 172.399 12.912C172.772 13.6267 173.284 14.1867 173.935 14.592C174.596 14.9973 175.348 15.2 176.191 15.2C177.044 15.2 177.796 14.9973 178.447 14.592C179.098 14.1867 179.604 13.6267 179.967 12.912C180.34 12.1867 180.527 11.3493 180.527 10.4Z" fill="white"/>
<path d="M53.44 55.53C45.9867 55.2567 38.5267 54.9867 31.06 54.72C31.0667 53.3467 31.07 51.9733 31.07 50.6C31.06 47.09 30.83 44.88 30.39 43.94C29.96 42.96 28.88 42.41 27.14 42.28C25.72 42.17 24.66 42.53 23.94 43.38C23.24 44.19 22.88 45.47 22.88 47.22C22.89 49.6 23.05 51.37 23.39 52.52C23.76 53.62 24.81 54.86 26.56 56.24C28.36 57.61 32.01 59.58 37.51 62.13C44.84 65.36 49.66 68.28 51.95 70.95C54.23 73.59 55.39 77.42 55.39 82.49C55.39 88.11 54.5 92.41 52.76 95.44C51.01 98.44 48.07 100.97 43.95 103.03C39.86 105.06 34.93 106.47 29.13 107.2C22.72 108.02 17.22 107.81 12.63 106.54C8.08 105.17 4.97 102.88 3.25 99.72C1.55 96.49 0.7 91.47 0.69 84.65C0.69 83.3367 0.69 82.0233 0.69 80.71C8.15 80.53 15.6067 80.31 23.06 80.05C23.0667 81.6833 23.07 83.3133 23.07 84.94C23.06 89.07 23.33 91.71 23.88 92.9C24.46 94.07 25.59 94.58 27.25 94.44C29.05 94.28 30.3 93.78 31.01 92.94C31.72 92.06 32.06 90.33 32.06 87.76C32.07 84.19 31.61 81.97 30.69 81.11C29.74 80.24 24.84 77.7 16.01 73.28C8.59 69.32 4.07 65.62 2.45 62.29C0.82 58.9 0.01 54.88 0 50.28C0.01 43.73 0.89 38.96 2.63 35.98C4.38 33.01 7.34 30.86 11.51 29.59C15.72 28.39 20.58 28.14 26.14 28.78C31.64 29.43 36.29 30.61 40.14 32.28C44 33.91 46.96 35.79 49 37.95C51.09 40.08 52.34 41.98 52.76 43.66C53.21 45.35 53.45 47.94 53.45 51.46C53.45 52.8133 53.4467 54.17 53.44 55.53ZM87.39 24.21C87.39 29.63 87.39 35.08 87.39 40.56C89.55 39.34 91.89 38.52 94.39 38.09C96.93 37.68 99.64 37.64 102.51 37.96C106.93 38.44 110.68 39.57 113.76 41.31C116.88 43.01 118.77 44.8 119.44 46.72C120.15 48.62 120.51 52.08 120.51 57.16C120.503 69.76 120.5 82.2533 120.5 94.64C112.087 95.64 103.673 96.6533 95.26 97.68C95.26 83.6867 95.2567 69.66 95.25 55.6C95.26 52.14 95.01 49.9 94.51 48.89C94.05 47.88 92.99 47.32 91.32 47.2C89.77 47.08 88.74 47.52 88.2 48.52C87.66 49.53 87.39 51.58 87.39 54.7C87.39 69.3933 87.39 84.0467 87.39 98.66C78.97 99.7067 70.5533 100.753 62.14 101.8C62.14 74.3667 62.14 47.1 62.14 20C70.5533 21.4067 78.97 22.81 87.39 24.21ZM155.26 31.41C155.26 33.8033 155.26 36.2267 155.26 38.68C146.593 38.8933 137.927 38.7967 129.26 38.39C129.26 35.8633 129.257 33.3533 129.25 30.86C137.923 31.7133 146.593 31.8967 155.26 31.41ZM155.26 41.59C155.253 58.8367 155.253 76.07 155.26 93.29C146.593 92.9433 137.927 93.0767 129.26 93.69C129.26 76.2167 129.257 58.7733 129.25 41.36C137.923 41.68 146.593 41.7567 155.26 41.59ZM190.07 38.57C189.923 40.33 189.78 42.0967 189.64 43.87C191.47 41.59 193.7 39.78 196.32 38.45C198.98 37.05 202.05 36.14 205.51 35.73C209.84 35.21 213.39 35.55 216.13 36.79C218.89 38.07 220.66 39.91 221.45 42.3C222.24 44.69 222.64 48.79 222.64 54.63C222.633 70.31 222.633 85.8667 222.64 101.3C214.213 100.253 205.797 99.2067 197.39 98.16C197.383 84.1933 197.38 70.1867 197.38 56.14C197.39 51.98 197.2 49.47 196.82 48.59C196.45 47.71 195.41 47.34 193.69 47.46C191.91 47.59 190.78 48.17 190.32 49.23C189.86 50.25 189.64 52.96 189.64 57.37C189.64 70.6767 189.637 83.9567 189.63 97.21C181.21 96.1833 172.797 95.1833 164.39 94.21C164.39 76.41 164.39 58.68 164.39 41.02C172.95 40.2733 181.51 39.4567 190.07 38.57ZM288.57 69.98C277.67 69.9467 266.777 69.8767 255.89 69.77C255.883 75.2033 255.883 80.6167 255.89 86.01C255.89 89.37 256.15 91.55 256.7 92.56C257.24 93.58 258.28 94.15 259.82 94.29C261.74 94.45 263.01 93.92 263.64 92.68C264.3 91.4 264.64 88.86 264.64 85.06C264.64 81.6733 264.637 78.28 264.63 74.88C272.61 75.0533 280.59 75.19 288.57 75.29C288.57 77.3033 288.57 79.32 288.57 81.34C288.57 86.39 288.24 90.26 287.57 92.94C286.95 95.6 285.44 98.38 283.07 101.22C280.7 103.99 277.68 105.88 274.01 106.92C270.39 107.87 265.82 107.99 260.32 107.29C254.98 106.61 250.28 105.35 246.2 103.55C242.1 101.77 238.93 99.66 236.64 97.2C234.39 94.73 232.81 92.15 231.95 89.44C231.06 86.69 230.64 82.77 230.64 77.65C230.633 70.9367 230.633 64.21 230.64 57.47C230.64 51.44 231.61 46.64 233.57 43.03C235.53 39.35 238.73 36.33 243.2 33.98C247.66 31.54 252.77 29.95 258.57 29.26C265.66 28.42 271.49 29.03 276.07 31.13C280.7 33.3 283.93 36.53 285.76 40.79C287.63 45.05 288.57 51.16 288.56 59.11C288.56 62.7367 288.563 66.36 288.57 69.98ZM263.26 57.26C263.26 55.3733 263.26 53.49 263.26 51.61C263.26 47.62 263.02 45.06 262.57 43.94C262.1 42.81 261.18 42.31 259.76 42.42C258.01 42.55 256.93 43.12 256.5 44.12C256.09 45.1 255.89 47.7 255.89 51.93C255.89 53.77 255.89 55.6133 255.89 57.46C258.343 57.3933 260.8 57.3267 263.26 57.26Z" fill="#F6F4DF"/>
<path d="M111.656 111.352H117.227V113.883H114.945V116.281H116.977V118.688H114.945V124H111.656V111.352ZM130.566 111.352L129.105 124H124.996C124.621 122.057 124.29 119.849 124.004 117.375C123.874 118.432 123.569 120.641 123.09 124H119.004L117.535 111.352H120.73L121.066 115.766L121.41 120.023C121.53 117.82 121.832 114.93 122.316 111.352H125.738C125.785 111.721 125.905 113.112 126.097 115.523L126.457 120.328C126.639 117.271 126.944 114.279 127.371 111.352H130.566ZM138.929 116.008H135.64V114.859C135.64 114.135 135.609 113.682 135.547 113.5C135.484 113.318 135.336 113.227 135.101 113.227C134.898 113.227 134.76 113.305 134.687 113.461C134.614 113.617 134.578 114.018 134.578 114.664V120.734C134.578 121.302 134.614 121.677 134.687 121.859C134.76 122.036 134.906 122.125 135.125 122.125C135.364 122.125 135.526 122.023 135.609 121.82C135.698 121.617 135.742 121.221 135.742 120.633V119.133H135.078V117.211H138.929V124H136.859L136.554 123.094C136.33 123.484 136.047 123.779 135.703 123.977C135.364 124.169 134.963 124.266 134.5 124.266C133.948 124.266 133.429 124.133 132.945 123.867C132.466 123.596 132.101 123.263 131.851 122.867C131.601 122.471 131.445 122.057 131.382 121.625C131.32 121.188 131.289 120.534 131.289 119.664V115.906C131.289 114.698 131.354 113.82 131.484 113.273C131.614 112.727 131.987 112.227 132.601 111.773C133.221 111.315 134.021 111.086 135 111.086C135.963 111.086 136.763 111.284 137.398 111.68C138.034 112.076 138.448 112.547 138.64 113.094C138.833 113.635 138.929 114.424 138.929 115.461V116.008ZM150.07 121.844V124H143.124V122.195C145.182 118.831 146.403 116.75 146.788 115.953C147.179 115.151 147.374 114.526 147.374 114.078C147.374 113.734 147.314 113.479 147.195 113.312C147.08 113.141 146.903 113.055 146.663 113.055C146.424 113.055 146.244 113.148 146.124 113.336C146.01 113.523 145.952 113.896 145.952 114.453V115.656H143.124V115.195C143.124 114.487 143.161 113.93 143.234 113.523C143.307 113.112 143.486 112.708 143.773 112.312C144.059 111.917 144.432 111.617 144.89 111.414C145.348 111.211 145.898 111.109 146.538 111.109C147.794 111.109 148.742 111.422 149.382 112.047C150.028 112.667 150.351 113.453 150.351 114.406C150.351 115.13 150.169 115.896 149.804 116.703C149.445 117.51 148.38 119.224 146.609 121.844H150.07ZM158.902 115.633V119.852C158.902 120.81 158.849 121.508 158.745 121.945C158.641 122.383 158.425 122.792 158.097 123.172C157.769 123.552 157.373 123.826 156.909 123.992C156.446 124.159 155.928 124.242 155.355 124.242C154.599 124.242 153.972 124.156 153.472 123.984C152.972 123.807 152.573 123.534 152.277 123.164C151.98 122.794 151.769 122.406 151.644 122C151.519 121.589 151.456 120.938 151.456 120.047V115.633C151.456 114.471 151.555 113.602 151.753 113.023C151.956 112.445 152.355 111.982 152.948 111.633C153.547 111.284 154.271 111.109 155.12 111.109C155.813 111.109 156.433 111.232 156.98 111.477C157.527 111.716 157.935 112.01 158.206 112.359C158.477 112.708 158.659 113.102 158.753 113.539C158.852 113.977 158.902 114.674 158.902 115.633ZM155.745 114.57C155.745 113.898 155.711 113.479 155.644 113.312C155.581 113.141 155.43 113.055 155.191 113.055C154.956 113.055 154.8 113.146 154.722 113.328C154.649 113.505 154.612 113.919 154.612 114.57V120.742C154.612 121.477 154.646 121.919 154.714 122.07C154.787 122.221 154.941 122.297 155.175 122.297C155.409 122.297 155.563 122.208 155.636 122.031C155.709 121.854 155.745 121.456 155.745 120.836V114.57ZM166.999 121.844V124H160.054V122.195C162.111 118.831 163.332 116.75 163.718 115.953C164.108 115.151 164.304 114.526 164.304 114.078C164.304 113.734 164.244 113.479 164.124 113.312C164.009 113.141 163.832 113.055 163.593 113.055C163.353 113.055 163.174 113.148 163.054 113.336C162.939 113.523 162.882 113.896 162.882 114.453V115.656H160.054V115.195C160.054 114.487 160.09 113.93 160.163 113.523C160.236 113.112 160.416 112.708 160.702 112.312C160.989 111.917 161.361 111.617 161.819 111.414C162.278 111.211 162.827 111.109 163.468 111.109C164.723 111.109 165.671 111.422 166.312 112.047C166.957 112.667 167.28 113.453 167.28 114.406C167.28 115.13 167.098 115.896 166.733 116.703C166.374 117.51 165.309 119.224 163.538 121.844H166.999ZM175.276 111.352V113.375H171.362V115.523C171.852 114.945 172.482 114.656 173.253 114.656C174.123 114.656 174.779 114.901 175.222 115.391C175.669 115.875 175.893 116.81 175.893 118.195V120C175.893 120.896 175.849 121.555 175.761 121.977C175.677 122.393 175.495 122.781 175.214 123.141C174.932 123.495 174.539 123.768 174.034 123.961C173.534 124.148 172.922 124.242 172.198 124.242C171.386 124.242 170.669 124.102 170.05 123.82C169.43 123.534 168.99 123.109 168.729 122.547C168.469 121.984 168.339 121.115 168.339 119.938V119.25H171.495V120.039C171.495 120.857 171.524 121.438 171.581 121.781C171.638 122.125 171.836 122.297 172.175 122.297C172.331 122.297 172.456 122.247 172.55 122.148C172.649 122.049 172.701 121.943 172.706 121.828C172.716 121.714 172.727 121.216 172.737 120.336V117.828C172.737 117.354 172.688 117.031 172.589 116.859C172.49 116.688 172.326 116.602 172.097 116.602C171.951 116.602 171.828 116.646 171.729 116.734C171.63 116.823 171.565 116.919 171.534 117.023C171.508 117.122 171.495 117.357 171.495 117.727H168.37L168.503 111.352H175.276Z" fill="#FFA65E"/>
<g clip-path="url(#clip0_24_58)">
<path d="M186.5 121.672L191.393 124.625L190.094 119.06L194.417 115.315L188.725 114.832L186.5 109.583L184.275 114.832L178.583 115.315L182.906 119.06L181.608 124.625L186.5 121.672Z" fill="#FFA65E"/>
</g>
<g clip-path="url(#clip1_24_58)">
<path d="M101.5 121.672L106.392 124.625L105.094 119.06L109.417 115.315L103.725 114.832L101.5 109.583L99.2754 114.832L93.5833 115.315L97.9058 119.06L96.6075 124.625L101.5 121.672Z" fill="#FFA65E"/>
</g>
<defs>
<clipPath id="clip0_24_58">
<rect width="19" height="19" fill="white" transform="translate(177 108)"/>
</clipPath>
<clipPath id="clip1_24_58">
<rect width="19" height="19" fill="white" transform="translate(92 108)"/>
</clipPath>
</defs>
</svg>
